<svg width="524" height="44" viewBox="0 0 524 44" fill="none" xmlns="http://www.w3.org/2000/svg">
<path d="M32.967 16.6514H35.715V27.7943H32.967V16.6514ZM36.8108 23.6028C36.8108 20.8428 38.5229 19.1885 41.0911 19.1885C43.6592 19.1885 45.3714 20.8428 45.3714 23.6028C45.3714 26.3628 43.7192 28.0343 41.0911 28.0343C38.463 28.0343 36.8108 26.4228 36.8108 23.6028ZM42.6491 23.6028C42.6491 22.0857 42.0584 21.1943 41.1167 21.1943C40.1751 21.1943 39.593 22.0514 39.593 23.6028C39.593 25.1543 40.1751 26.0028 41.1167 26.0028C42.0584 26.0028 42.6662 25.1543 42.6662 23.6114L42.6491 23.6028ZM46.4671 28.3685H49.1209C49.2417 28.6546 49.4527 28.8933 49.7217 29.048C49.9907 29.2028 50.3028 29.2652 50.6105 29.2257C51.6634 29.2257 52.2113 28.66 52.2113 27.82V26.2771H52.2198C51.9931 26.7575 51.6263 27.1579 51.168 27.4257C50.7096 27.6935 50.181 27.8159 49.6517 27.7771C47.6399 27.7771 46.3045 26.2428 46.3045 23.6028C46.3045 20.9628 47.58 19.3171 49.7287 19.3171C50.2715 19.2881 50.8101 19.4282 51.27 19.7183C51.7299 20.0085 52.0887 20.4343 52.2969 20.9371H52.2198V19.3857H54.9421V27.7343C54.9421 29.7485 53.1615 31.0085 50.542 31.0085C48.1621 31 46.6383 29.9114 46.4842 28.3771L46.4671 28.3685ZM52.2198 23.6028C52.2198 22.2571 51.6035 21.4085 50.6276 21.4085C49.6517 21.4085 49.0524 22.2657 49.0524 23.6028C49.0524 24.94 49.6431 25.7285 50.6276 25.7285C51.612 25.7285 52.2198 25 52.2198 23.6028ZM56.0293 23.6028C56.0293 20.8428 57.7414 19.1885 60.3096 19.1885C62.8778 19.1885 64.5899 20.8428 64.5899 23.6028C64.5899 26.3628 62.9292 28.0343 60.3096 28.0343C57.6901 28.0343 56.0464 26.4228 56.0464 23.6028H56.0293ZM61.8676 23.6028C61.8676 22.0857 61.2684 21.1943 60.3353 21.1943C59.4022 21.1943 58.8115 22.0514 58.8115 23.6028C58.8115 25.1543 59.3936 26.0028 60.3353 26.0028C61.277 26.0028 61.8848 25.1543 61.8848 23.6114L61.8676 23.6028ZM65.7028 17.3543C65.6908 17.074 65.7629 16.7965 65.9097 16.5576C66.0565 16.3187 66.2714 16.1292 66.5267 16.0136C66.782 15.8979 67.0659 15.8614 67.3421 15.9087C67.6182 15.9559 67.8739 16.0848 68.0763 16.2788C68.2787 16.4729 68.4185 16.723 68.4777 16.9972C68.5369 17.2714 68.5128 17.5571 68.4085 17.8174C68.3043 18.0778 68.1246 18.301 67.8926 18.4583C67.6606 18.6155 67.3869 18.6997 67.1067 18.7C66.9277 18.7045 66.7495 18.6734 66.5826 18.6085C66.4156 18.5435 66.2632 18.446 66.1342 18.3216C66.0052 18.1973 65.9021 18.0485 65.831 17.8838C65.7599 17.7192 65.7221 17.5421 65.7199 17.3628L65.7028 17.3543ZM65.7028 19.3771H68.485V27.8285H65.7456L65.7028 19.3771ZM78.4923 23.6028C78.4923 26.3543 77.2596 27.9485 75.1623 27.9485C74.6254 27.9817 74.0912 27.849 73.6319 27.5686C73.1726 27.288 72.8104 26.8732 72.5941 26.38H72.5427V30.5457H69.7948V19.4028H72.5256V20.9114H72.577C72.7858 20.4085 73.1445 19.9823 73.6041 19.6908C74.0637 19.3994 74.6018 19.2569 75.1451 19.2828C77.3024 19.2657 78.5437 20.8514 78.5437 23.6114L78.4923 23.6028ZM75.693 23.6028C75.693 22.2657 75.0681 21.4 74.1008 21.4C73.1334 21.4 72.5256 22.2571 72.517 23.6028C72.5085 24.9485 73.1334 25.7971 74.1008 25.7971C75.0681 25.7971 75.7444 25 75.7444 23.6114L75.693 23.6028ZM83.1836 19.18C85.4864 19.18 86.916 20.2685 86.9331 22.0171H84.4248C84.4248 21.4085 83.9198 21.0314 83.1664 21.0314C82.4131 21.0314 82.0536 21.3228 82.0536 21.76C82.0536 22.1971 82.3703 22.3343 83.0038 22.4628L84.7673 22.8228C86.4794 23.1828 87.1642 23.8685 87.1642 25.1457C87.1642 26.86 85.5805 28.0257 83.2264 28.0257C80.8722 28.0257 79.3398 26.8943 79.2286 25.1714H81.8909C81.968 25.7971 82.4645 26.1657 83.2692 26.1657C84.0739 26.1657 84.4505 25.9085 84.4505 25.4543C84.4505 25 84.1937 24.9228 83.5345 24.7857L81.9423 24.4514C80.2901 24.1 79.4255 23.2343 79.4255 21.94C79.4768 20.26 80.915 19.1885 83.2349 19.1885L83.1836 19.18ZM96.3669 27.82H93.7045V26.2343H93.6532C93.5042 26.7632 93.1798 27.2255 92.7329 27.5448C92.2861 27.8643 91.7442 28.0217 91.1963 27.9914C90.7828 28.0049 90.3702 27.9306 89.9875 27.7734C89.6049 27.6163 89.259 27.3798 88.9739 27.0796C88.688 26.7792 88.4697 26.4219 88.3319 26.031C88.1941 25.6402 88.1402 25.2245 88.1744 24.8114V19.3857H90.9223V24.22C90.9223 25.2143 91.4445 25.7543 92.3006 25.7543C92.5018 25.7527 92.6995 25.7081 92.8819 25.6234C93.0642 25.5386 93.226 25.4157 93.3561 25.2629C93.4871 25.1102 93.5838 24.9311 93.6395 24.7379C93.6943 24.5447 93.708 24.3418 93.6789 24.1428V19.3857H96.4183L96.3669 27.82ZM97.6938 19.3771H100.365V21.0057H100.425C100.572 20.4839 100.889 20.026 101.323 19.7033C101.759 19.3808 102.289 19.2118 102.83 19.2228C103.374 19.1755 103.916 19.3329 104.349 19.6642C104.783 19.9955 105.077 20.4769 105.176 21.0143H105.296C105.467 20.474 105.811 20.0055 106.276 19.6816C106.74 19.3576 107.299 19.1963 107.864 19.2228C108.24 19.2085 108.615 19.2738 108.963 19.4145C109.312 19.5551 109.627 19.7679 109.888 20.039C110.149 20.31 110.35 20.6333 110.477 20.9874C110.606 21.3416 110.657 21.7187 110.629 22.0943V27.8285H107.864V22.7971C107.864 21.94 107.461 21.46 106.682 21.46C106.509 21.4571 106.338 21.4918 106.18 21.5614C106.022 21.6311 105.881 21.7342 105.766 21.8636C105.652 21.9931 105.566 22.1458 105.516 22.3114C105.466 22.477 105.452 22.6514 105.475 22.8228V27.8285H102.856V22.7714C102.856 21.9143 102.436 21.46 101.683 21.46C101.508 21.4586 101.335 21.4946 101.176 21.5656C101.016 21.6366 100.874 21.7409 100.758 21.8717C100.642 22.0024 100.556 22.1564 100.504 22.3234C100.452 22.4904 100.437 22.6666 100.459 22.84V27.8285H97.7109L97.6938 19.3771Z" fill="#B4B7C9"/>
<path d="M27.5308 17.38C27.5309 15.674 27.0164 14.0078 26.0547 12.5996C25.093 11.1913 23.7289 10.1067 22.1412 9.48787C20.5534 8.86901 18.816 8.74472 17.1565 9.13129C15.4969 9.51785 13.9928 10.3972 12.8408 11.6543H2.15723V34.2314H24.7144V23.68C25.5997 22.8871 26.3082 21.9162 26.7935 20.8307C27.2788 19.7451 27.5301 18.5694 27.5308 17.38ZM23.1906 17.38C23.1923 18.1974 22.9518 18.9971 22.4994 19.6776C22.047 20.3581 21.4033 20.8891 20.6494 21.203C19.8956 21.5171 19.0657 21.6001 18.2647 21.4417C17.4637 21.2833 16.7277 20.8904 16.1498 20.313C15.5719 19.7355 15.1781 18.9994 15.0182 18.1977C14.8582 17.3961 14.9395 16.5649 15.2515 15.8095C15.5635 15.0541 16.0924 14.4084 16.7711 13.954C17.4499 13.4997 18.248 13.2571 19.0644 13.2571C20.1573 13.2571 21.2055 13.6912 21.979 14.4642C22.7527 15.2371 23.1884 16.2858 23.1906 17.38ZM20.3742 29.8857H6.49745V16H10.7264C10.6447 16.4556 10.6017 16.9172 10.598 17.38C10.6003 19.6276 11.493 21.7825 13.0803 23.3718C14.6675 24.961 16.8196 25.8549 19.0644 25.8571C19.5033 25.8548 19.9413 25.8175 20.3742 25.7457V29.8857Z" fill="#B4B7C9"/>
<path d="M150.029 13.4764V9.97644H138.729V34.0235H150.029V30.5235C147.714 30.5235 145.494 29.6254 143.857 28.027C142.22 26.4285 141.301 24.2606 141.301 22C141.301 19.7394 142.22 17.5714 143.857 15.9729C145.494 14.3745 147.714 13.4764 150.029 13.4764Z" fill="#B4B7C9"/>
<path d="M150.029 13.4764V30.5235C152.343 30.5235 154.563 29.6254 156.2 28.027C157.837 26.4285 158.757 24.2606 158.757 22C158.757 19.7394 157.837 17.5714 156.2 15.9729C154.563 14.3745 152.343 13.4764 150.029 13.4764Z" fill="#B4B7C9"/>
<path d="M165.098 15.6177H167.628V27.5177H165.098V15.6177Z" fill="#B4B7C9"/>
<path d="M169.045 23.4412C169.045 22.5851 169.305 21.7482 169.792 21.0367C170.28 20.3252 170.973 19.771 171.783 19.4445C172.594 19.118 173.485 19.0339 174.345 19.2027C175.204 19.3715 175.993 19.7858 176.611 20.3929C177.229 21 177.649 21.7727 177.817 22.613C177.985 23.4533 177.894 24.3234 177.555 25.113C177.216 25.9025 176.644 26.5761 175.913 27.0481C175.182 27.5203 174.323 27.7696 173.447 27.7648C172.865 27.7692 172.289 27.6603 171.751 27.4442C171.213 27.2282 170.725 26.9094 170.315 26.5068C169.905 26.1041 169.581 25.6255 169.363 25.0991C169.145 24.5727 169.037 24.0091 169.045 23.4412ZM175.386 23.4412C175.376 23.0721 175.255 22.7141 175.038 22.4119C174.82 22.1097 174.517 21.8767 174.165 21.7421C173.813 21.6076 173.428 21.5773 173.058 21.6553C172.689 21.7332 172.351 21.9158 172.087 22.1803C171.823 22.4448 171.645 22.7793 171.575 23.1421C171.505 23.505 171.546 23.8799 171.692 24.2201C171.839 24.5603 172.086 24.8508 172.401 25.0549C172.716 25.2592 173.085 25.3681 173.463 25.3683C173.721 25.3732 173.977 25.3262 174.215 25.2302C174.452 25.1342 174.668 24.9914 174.846 24.8105C175.025 24.6297 175.164 24.4146 175.254 24.1791C175.344 23.9435 175.383 23.6923 175.369 23.4412H175.386Z" fill="#B4B7C9"/>
<path d="M187.858 19.3647V27.1141C187.858 29.8482 185.666 31.0094 183.448 31.0094C182.666 31.0721 181.881 30.9203 181.182 30.5711C180.484 30.222 179.899 29.6892 179.493 29.033L181.627 27.8306C181.799 28.171 182.074 28.4519 182.415 28.6358C182.755 28.8197 183.145 28.8979 183.532 28.86C183.779 28.8897 184.029 28.8658 184.265 28.79C184.501 28.7142 184.717 28.5884 184.898 28.4216C185.078 28.2547 185.219 28.0511 185.309 27.825C185.4 27.599 185.438 27.3562 185.421 27.1141V26.3647C185.127 26.7133 184.753 26.99 184.33 27.173C183.907 27.356 183.446 27.4402 182.984 27.4188C181.866 27.4188 180.794 26.985 180.003 26.2128C179.212 25.4406 178.768 24.3933 178.768 23.3012C178.768 22.2091 179.212 21.1618 180.003 20.3896C180.794 19.6174 181.866 19.1835 182.984 19.1835C183.446 19.1622 183.907 19.2464 184.33 19.4294C184.753 19.6124 185.127 19.8891 185.421 20.2377V19.4141L187.858 19.3647ZM185.421 23.2765C185.438 22.8825 185.334 22.4926 185.122 22.1569C184.91 21.8212 184.6 21.5551 184.232 21.3928C183.864 21.2305 183.455 21.1794 183.057 21.2462C182.659 21.3129 182.29 21.4943 181.999 21.7671C181.707 22.04 181.506 22.3918 181.421 22.7773C181.336 23.1628 181.371 23.5642 181.521 23.9302C181.671 24.2962 181.93 24.6099 182.265 24.8309C182.599 25.0519 182.994 25.1703 183.397 25.1706C183.661 25.1891 183.926 25.1535 184.174 25.066C184.422 24.9785 184.649 24.841 184.84 24.6625C185.031 24.484 185.181 24.2684 185.281 24.0297C185.381 23.7909 185.429 23.5343 185.421 23.2765Z" fill="#B4B7C9"/>
<path d="M189.283 23.4412C189.283 22.5857 189.543 21.7495 190.03 21.0383C190.517 20.3271 191.209 19.773 192.018 19.446C192.828 19.119 193.718 19.0339 194.578 19.2014C195.437 19.3689 196.225 19.7815 196.844 20.3869C197.463 20.9925 197.884 21.7636 198.054 22.6028C198.224 23.442 198.135 24.3116 197.799 25.1015C197.462 25.8914 196.893 26.566 196.164 27.0401C195.435 27.5142 194.578 27.7664 193.702 27.7648C193.12 27.7703 192.542 27.6621 192.003 27.4467C191.463 27.2313 190.974 26.9129 190.562 26.5102C190.151 26.1075 189.825 25.6286 189.606 25.1016C189.386 24.5746 189.277 24.0101 189.283 23.4412ZM195.625 23.4412C195.615 23.0718 195.494 22.7134 195.276 22.411C195.058 22.1087 194.754 21.8757 194.402 21.7414C194.049 21.6071 193.664 21.5773 193.294 21.656C192.924 21.7345 192.586 21.918 192.323 22.1833C192.059 22.4485 191.882 22.7839 191.813 23.1472C191.744 23.5106 191.786 23.8858 191.934 24.2258C192.082 24.5659 192.33 24.8557 192.646 25.059C192.962 25.2621 193.332 25.3698 193.711 25.3683C193.968 25.3732 194.224 25.3262 194.462 25.2302C194.7 25.1342 194.915 24.9914 195.094 24.8105C195.273 24.6297 195.411 24.4146 195.501 24.1791C195.591 23.9435 195.631 23.6923 195.617 23.4412H195.625Z" fill="#B4B7C9"/>
<path d="M199.293 17.1823C199.293 16.8924 199.381 16.609 199.546 16.3679C199.711 16.1268 199.946 15.939 200.22 15.828C200.494 15.7171 200.796 15.688 201.087 15.7446C201.378 15.8012 201.646 15.9408 201.856 16.1458C202.066 16.3508 202.209 16.612 202.267 16.8963C202.325 17.1807 202.295 17.4754 202.181 17.7433C202.068 18.0111 201.875 18.2401 201.628 18.4011C201.382 18.5622 201.091 18.6482 200.794 18.6482C200.398 18.6439 200.019 18.4881 199.738 18.2141C199.457 17.9401 199.298 17.5698 199.293 17.1823ZM199.538 19.3647H202.068V27.5176H199.538V19.3647Z" fill="#B4B7C9"/>
<path d="M212.895 23.4412C212.924 23.9834 212.842 24.5258 212.655 25.0371C212.468 25.5483 212.179 26.0184 211.805 26.4202C211.431 26.8221 210.98 27.1477 210.477 27.3784C209.973 27.6092 209.428 27.7405 208.873 27.7647C208.402 27.7954 207.929 27.7217 207.491 27.5491C207.053 27.3765 206.661 27.1096 206.343 26.7683V30.7953H203.813V19.3647H206.343V20.1306C206.661 19.7903 207.054 19.5246 207.492 19.3535C207.93 19.1823 208.402 19.1101 208.873 19.1424C209.426 19.1667 209.969 19.2972 210.47 19.5264C210.972 19.7556 211.422 20.0791 211.796 20.4782C212.169 20.8774 212.459 21.3445 212.647 21.853C212.836 22.3613 212.92 22.901 212.895 23.4412ZM210.366 23.4412C210.356 23.0587 210.23 22.6876 210.005 22.3744C209.78 22.0612 209.466 21.8198 209.101 21.6805C208.736 21.5412 208.337 21.5102 207.954 21.5913C207.571 21.6724 207.221 21.8622 206.948 22.1367C206.675 22.4111 206.491 22.7582 206.42 23.1344C206.348 23.5105 206.391 23.8989 206.545 24.2511C206.698 24.6031 206.954 24.9032 207.281 25.1137C207.609 25.3242 207.992 25.4356 208.384 25.4342C208.652 25.4453 208.92 25.4009 209.169 25.3039C209.419 25.2069 209.645 25.0595 209.832 24.8713C210.019 24.6831 210.163 24.4584 210.255 24.212C210.347 23.9655 210.385 23.7029 210.366 23.4412Z" fill="#B4B7C9"/>
<path d="M220.595 25.0717C220.595 26.9493 218.908 27.7481 217.12 27.7481C216.391 27.8122 215.659 27.6613 215.019 27.3148C214.378 26.9683 213.859 26.4423 213.528 25.8046L215.704 24.6023C215.79 24.8961 215.977 25.1521 216.233 25.3275C216.49 25.503 216.8 25.587 217.112 25.5658C217.711 25.5658 218.014 25.3846 218.014 25.0552C218.014 24.1576 213.908 24.6352 213.908 21.8105C213.908 20.0317 215.442 19.1423 217.179 19.1423C217.84 19.1134 218.496 19.2597 219.078 19.5656C219.66 19.8716 220.146 20.3258 220.485 20.8799L218.309 21.9999C218.213 21.7874 218.056 21.6068 217.857 21.4796C217.658 21.3524 217.426 21.2843 217.188 21.2834C216.749 21.2834 216.488 21.4481 216.488 21.7364C216.488 22.6752 220.595 22.0576 220.595 25.0717Z" fill="#B4B7C9"/>
<path d="M229.761 19.3647V27.5177H227.231V26.7518C226.944 27.0909 226.579 27.3591 226.166 27.5351C225.753 27.7111 225.304 27.7897 224.853 27.7647C223.167 27.7647 221.725 26.5871 221.725 24.3883V19.3647H224.255V24.0177C224.234 24.2122 224.258 24.4086 224.324 24.5934C224.39 24.7781 224.495 24.9468 224.633 25.0878C224.772 25.2287 224.941 25.3385 225.127 25.4098C225.314 25.4809 225.514 25.5117 225.714 25.5C226.624 25.5 227.265 24.973 227.265 23.853V19.3647H229.761Z" fill="#B4B7C9"/>
<path d="M244.097 22.5105V27.5176H241.567V22.7246C241.567 21.9011 241.171 21.3905 240.37 21.3905C239.569 21.3905 239.063 21.9588 239.063 22.9223V27.5176H236.533V22.7246C236.533 21.9011 236.137 21.3905 235.335 21.3905C234.534 21.3905 234.028 21.9588 234.028 22.9223V27.5176H231.499V19.3646H234.028V20.1141C234.291 19.783 234.632 19.5208 235.024 19.3511C235.416 19.1815 235.845 19.1097 236.272 19.1423C236.699 19.1205 237.126 19.2078 237.509 19.3954C237.891 19.5831 238.218 19.8649 238.456 20.2129C238.734 19.8492 239.102 19.5603 239.525 19.3731C239.947 19.1859 240.413 19.1065 240.876 19.1423C242.849 19.1423 244.097 20.4764 244.097 22.5105Z" fill="#B4B7C9"/>
<path d="M246.222 19.3153C247.247 19.3153 248.077 18.5041 248.077 17.5035C248.077 16.5029 247.247 15.6918 246.222 15.6918C245.198 15.6918 244.367 16.5029 244.367 17.5035C244.367 18.5041 245.198 19.3153 246.222 19.3153Z" fill="#B4B7C9"/>
<path d="M292.095 20.6968C291.789 21.0019 291.555 21.37 291.409 21.775C291.263 22.18 291.209 22.612 291.251 23.04L291.237 23.0256C291.279 23.5296 291.211 24.0366 291.036 24.5116C290.86 24.9864 290.583 25.4177 290.222 25.7753C289.861 26.1328 289.426 26.4081 288.947 26.5817C288.468 26.7554 287.956 26.8234 287.448 26.7808L287.462 26.7952C286.854 26.7392 286.243 26.8703 285.713 27.1708C285.183 27.4714 284.759 27.9267 284.5 28.4747C284.24 29.0227 284.158 29.6366 284.263 30.2329C284.369 30.8292 284.657 31.3787 285.089 31.8065C285.521 32.2344 286.076 32.5197 286.677 32.6236C287.279 32.7276 287.898 32.6451 288.451 32.3874C289.004 32.1296 289.463 31.7093 289.765 31.1836C290.068 30.6578 290.2 30.0524 290.143 29.4496L290.158 29.464C290.115 28.9602 290.184 28.4531 290.359 27.9781C290.534 27.5032 290.812 27.072 291.173 26.7144C291.533 26.3568 291.969 26.0816 292.448 25.908C292.927 25.7343 293.438 25.6663 293.947 25.7088L293.932 25.6944C294.428 25.7387 294.928 25.658 295.385 25.4597C295.842 25.2615 296.241 24.9521 296.545 24.5604C296.849 24.1686 297.049 23.707 297.125 23.2185C297.201 22.73 297.152 22.2303 296.982 21.7656C296.811 21.3011 296.525 20.8867 296.15 20.5608C295.775 20.235 295.323 20.0083 294.836 19.9017C294.349 19.7952 293.842 19.8121 293.364 19.9511C292.885 20.0901 292.45 20.3466 292.098 20.6968H292.095Z" fill="#B4B7C9"/>
<path d="M286.141 24.9087L286.126 24.8943C286.558 24.9374 286.994 24.8849 287.403 24.7404C287.812 24.5959 288.184 24.3632 288.491 24.059C288.798 23.7547 289.033 23.3866 289.179 22.9812C289.326 22.5758 289.379 22.1434 289.336 21.7151L289.351 21.7295C289.308 21.2256 289.377 20.7186 289.552 20.2436C289.727 19.7687 290.005 19.3374 290.366 18.9798C290.726 18.6223 291.161 18.347 291.641 18.1734C292.12 17.9997 292.631 17.9318 293.14 17.9743L293.124 17.9599C293.733 18.0166 294.344 17.8858 294.874 17.5856C295.405 17.2854 295.829 16.8303 296.088 16.2824C296.348 15.7345 296.431 15.1205 296.326 14.5241C296.221 13.9277 295.933 13.3779 295.501 12.9498C295.069 12.5217 294.515 12.2361 293.913 12.1319C293.311 12.0277 292.692 12.1101 292.139 12.3677C291.586 12.6253 291.127 13.0456 290.824 13.5714C290.521 14.0972 290.389 14.7027 290.446 15.3055L290.432 15.2903C290.475 15.7942 290.406 16.3014 290.231 16.7764C290.056 17.2513 289.778 17.6827 289.418 18.0403C289.057 18.3978 288.622 18.6731 288.142 18.8467C287.663 19.0203 287.151 19.0882 286.643 19.0455L286.658 19.0607C286.226 19.0176 285.789 19.0702 285.38 19.2146C284.971 19.359 284.599 19.5918 284.292 19.8961C283.985 20.2003 283.75 20.5685 283.604 20.9738C283.458 21.3792 283.404 21.8116 283.448 22.2399L283.433 22.2255C283.476 22.7294 283.407 23.2364 283.232 23.7113C283.057 24.1861 282.779 24.6174 282.418 24.9749C282.057 25.3324 281.622 25.6076 281.143 25.7814C280.664 25.955 280.153 26.0231 279.644 25.9807L279.659 25.9951C279.051 25.9385 278.44 26.0692 277.909 26.3694C277.379 26.6697 276.955 27.1247 276.695 27.6726C276.435 28.2206 276.352 28.8346 276.457 29.431C276.562 30.0274 276.85 30.5771 277.282 31.0052C277.714 31.4334 278.269 31.719 278.87 31.8231C279.472 31.9273 280.092 31.845 280.644 31.5874C281.197 31.3298 281.656 30.9094 281.959 30.3837C282.262 29.8578 282.394 29.2523 282.337 28.6495L282.352 28.6639C282.309 28.16 282.378 27.653 282.553 27.178C282.728 26.7031 283.006 26.2718 283.367 25.9142C283.728 25.5567 284.163 25.2814 284.642 25.1078C285.121 24.9342 285.633 24.8662 286.141 24.9087Z" fill="#B4B7C9"/>
<path d="M280.732 23.3032C281.038 22.9983 281.272 22.6301 281.418 22.2251C281.563 21.82 281.617 21.388 281.575 20.96L281.59 20.9744C281.547 20.4704 281.616 19.9632 281.791 19.4881C281.967 19.0131 282.245 18.5817 282.605 18.2241C282.966 17.8665 283.402 17.5914 283.881 17.4178C284.36 17.2442 284.872 17.1765 285.381 17.2192L285.365 17.2048C285.973 17.2613 286.584 17.1305 287.114 16.8303C287.645 16.5301 288.068 16.0752 288.328 15.5274C288.588 14.9797 288.671 14.3659 288.566 13.7697C288.461 13.1735 288.173 12.624 287.741 12.196C287.309 11.7681 286.755 11.4826 286.153 11.3784C285.552 11.2742 284.932 11.3565 284.38 11.6139C283.827 11.8714 283.368 12.2915 283.065 12.817C282.762 13.3425 282.63 13.9479 282.687 14.5504L282.673 14.536C282.716 15.0399 282.647 15.547 282.472 16.0219C282.297 16.4968 282.019 16.9281 281.658 17.2857C281.297 17.6433 280.862 17.9185 280.383 18.0921C279.904 18.2658 279.392 18.3338 278.884 18.2912L278.899 18.3056C278.402 18.2615 277.902 18.3424 277.445 18.5407C276.988 18.739 276.589 19.0484 276.285 19.4403C275.981 19.832 275.782 20.2936 275.706 20.7821C275.629 21.2707 275.679 21.7704 275.849 22.2348C276.02 22.6994 276.306 23.1137 276.681 23.4395C277.056 23.7653 277.508 23.992 277.995 24.0985C278.482 24.205 278.989 24.188 279.467 24.049C279.946 23.91 280.381 23.6535 280.733 23.3032H280.732Z" fill="#B4B7C9"/>
<path d="M305.734 15.3241H308.132V26.8865H305.734V15.3241Z" fill="#B4B7C9"/>
<path d="M309.489 22.9272C309.486 22.0963 309.732 21.283 310.195 20.5905C310.658 19.898 311.318 19.3574 312.092 19.0372C312.866 18.7168 313.718 18.6313 314.54 18.7914C315.363 18.9515 316.119 19.3499 316.713 19.9363C317.307 20.5226 317.712 21.2705 317.877 22.0852C318.042 22.9 317.959 23.7448 317.639 24.5128C317.319 25.2808 316.776 25.9374 316.079 26.3993C315.382 26.8613 314.563 27.108 313.724 27.108C313.168 27.1143 312.616 27.0105 312.1 26.8028C311.585 26.5952 311.116 26.2877 310.722 25.8985C310.327 25.5092 310.015 25.046 309.804 24.5358C309.592 24.0256 309.485 23.4788 309.489 22.9272ZM315.562 22.9272C315.552 22.569 315.436 22.2217 315.228 21.9287C315.02 21.6357 314.729 21.41 314.393 21.2798C314.056 21.1496 313.688 21.1206 313.335 21.1966C312.981 21.2726 312.658 21.45 312.406 21.7069C312.154 21.9637 311.984 22.2885 311.917 22.6407C311.851 22.9928 311.89 23.3566 312.031 23.6867C312.171 24.0168 312.407 24.2984 312.708 24.4964C313.009 24.6944 313.363 24.8 313.724 24.8C313.972 24.8065 314.218 24.7621 314.448 24.6696C314.677 24.5772 314.885 24.4386 315.057 24.2627C315.23 24.0867 315.364 23.8772 315.451 23.6473C315.538 23.4175 315.576 23.1723 315.562 22.9272Z" fill="#B4B7C9"/>
<path d="M327.514 18.9673V26.4873C327.514 29.1481 325.42 30.2729 323.295 30.2729C322.547 30.3284 321.797 30.1785 321.129 29.8399C320.461 29.5012 319.9 28.9867 319.508 28.3529L321.553 27.1809C321.718 27.5113 321.981 27.7838 322.306 27.9621C322.632 28.1404 323.005 28.2159 323.375 28.1785C323.611 28.2109 323.852 28.1903 324.079 28.1181C324.307 28.0458 324.515 27.9238 324.688 27.7612C324.861 27.5985 324.996 27.3993 325.081 27.1781C325.166 26.9571 325.2 26.7199 325.18 26.4841V25.7601C324.9 26.1005 324.542 26.3709 324.137 26.5497C323.732 26.7285 323.29 26.8107 322.847 26.7897C321.792 26.7567 320.793 26.3185 320.059 25.5676C319.324 24.8168 318.914 23.8123 318.914 22.7669C318.914 21.7214 319.324 20.7169 320.059 19.9661C320.793 19.2153 321.792 18.777 322.847 18.7441C323.29 18.723 323.732 18.8052 324.137 18.984C324.542 19.1628 324.9 19.4333 325.18 19.7737V18.9657L327.514 18.9673ZM325.181 22.7681C325.197 22.3852 325.097 22.0062 324.894 21.6801C324.691 21.3538 324.394 21.0953 324.042 20.9378C323.689 20.7802 323.297 20.7309 322.916 20.796C322.535 20.8611 322.183 21.0377 321.904 21.3033C321.625 21.5687 321.433 21.9108 321.351 22.2855C321.27 22.6602 321.304 23.0505 321.449 23.4059C321.594 23.7613 321.842 24.0658 322.163 24.2801C322.483 24.4943 322.861 24.6085 323.248 24.6081C323.5 24.6255 323.753 24.5905 323.99 24.5052C324.227 24.4199 324.444 24.2862 324.626 24.1129C324.808 23.9396 324.952 23.7304 325.047 23.4987C325.143 23.2671 325.188 23.0182 325.181 22.7681Z" fill="#B4B7C9"/>
<path d="M328.871 22.9272C328.868 22.0963 329.113 21.283 329.577 20.5905C330.04 19.898 330.7 19.3574 331.474 19.0372C332.247 18.7168 333.099 18.6313 333.922 18.7914C334.745 18.9515 335.501 19.3499 336.095 19.9363C336.689 20.5226 337.094 21.2705 337.259 22.0852C337.424 22.9 337.341 23.7448 337.021 24.5128C336.701 25.2808 336.158 25.9374 335.461 26.3993C334.764 26.8613 333.945 27.108 333.106 27.108C332.55 27.1143 331.998 27.0105 331.482 26.8028C330.966 26.5952 330.498 26.2877 330.104 25.8985C329.709 25.5092 329.397 25.046 329.186 24.5358C328.974 24.0256 328.867 23.4788 328.871 22.9272ZM334.944 22.9272C334.934 22.569 334.818 22.2217 334.61 21.9287C334.402 21.6357 334.111 21.41 333.774 21.2798C333.438 21.1496 333.07 21.1206 332.716 21.1966C332.363 21.2726 332.04 21.45 331.788 21.7069C331.536 21.9637 331.366 22.2885 331.299 22.6407C331.232 22.9928 331.272 23.3566 331.412 23.6867C331.553 24.0168 331.789 24.2984 332.09 24.4964C332.391 24.6944 332.745 24.8 333.106 24.8C333.354 24.8065 333.6 24.7621 333.829 24.6696C334.059 24.5772 334.267 24.4386 334.439 24.2627C334.612 24.0867 334.746 23.8772 334.833 23.6473C334.92 23.4175 334.958 23.1723 334.944 22.9272Z" fill="#B4B7C9"/>
<path d="M338.459 16.8448C338.459 16.5628 338.544 16.2872 338.702 16.0528C338.86 15.8183 339.084 15.6356 339.347 15.5277C339.61 15.4198 339.899 15.3916 340.178 15.4466C340.457 15.5016 340.714 15.6374 340.915 15.8367C341.116 16.0361 341.253 16.2901 341.308 16.5667C341.364 16.8432 341.335 17.1298 341.226 17.3903C341.118 17.6508 340.933 17.8735 340.697 18.0302C340.46 18.1868 340.182 18.2704 339.898 18.2704C339.517 18.2666 339.154 18.1153 338.885 17.8487C338.616 17.5822 338.463 17.2217 338.459 16.8448ZM338.701 18.9672H341.099V26.8872H338.698L338.701 18.9672Z" fill="#B4B7C9"/>
<path d="M351.45 22.9272C351.478 23.4507 351.401 23.9743 351.224 24.4682C351.046 24.962 350.773 25.4163 350.418 25.8048C350.063 26.1933 349.634 26.5085 349.155 26.7322C348.677 26.9558 348.159 27.0835 347.631 27.108C347.186 27.132 346.742 27.0578 346.331 26.8907C345.919 26.7235 345.55 26.4676 345.25 26.1416V30.0544H342.853V18.9672H345.25V19.7112C345.55 19.3855 345.919 19.1298 346.331 18.9628C346.743 18.7958 347.187 18.7216 347.631 18.7456C348.159 18.77 348.677 18.8977 349.156 19.1214C349.634 19.3451 350.063 19.6603 350.418 20.0489C350.773 20.4375 351.047 20.8919 351.224 21.3859C351.401 21.8799 351.478 22.4037 351.45 22.9272ZM349.053 22.9272C349.044 22.5566 348.924 22.1969 348.709 21.8931C348.495 21.5895 348.195 21.3552 347.846 21.2199C347.498 21.0844 347.117 21.0538 346.752 21.1319C346.386 21.2099 346.052 21.3931 345.79 21.6585C345.529 21.924 345.353 22.2599 345.283 22.6243C345.214 22.9886 345.254 23.3651 345.4 23.7067C345.545 24.0484 345.789 24.3399 346.101 24.545C346.412 24.7499 346.778 24.8593 347.152 24.8592C347.409 24.8706 347.665 24.8279 347.904 24.7342C348.143 24.6405 348.36 24.4977 348.539 24.3153C348.719 24.1328 348.857 23.9149 348.946 23.6757C349.034 23.4365 349.071 23.1814 349.053 22.9272Z" fill="#B4B7C9"/>
<path d="M358.848 24.5104C358.848 26.332 357.25 27.108 355.525 27.108C354.827 27.1706 354.127 27.0245 353.515 26.6884C352.902 26.3524 352.405 25.842 352.089 25.2232L354.165 24.0512C354.249 24.3372 354.43 24.5861 354.677 24.7561C354.923 24.9262 355.222 25.0072 355.521 24.9856C356.096 24.9856 356.384 24.8112 356.384 24.4952C356.384 23.6232 352.453 24.0832 352.453 21.3432C352.453 19.616 353.923 18.7456 355.585 18.7456C356.21 18.726 356.828 18.8729 357.376 19.1709C357.924 19.469 358.382 19.9072 358.701 20.44L356.655 21.5328C356.566 21.3254 356.417 21.1487 356.226 21.0248C356.036 20.9008 355.813 20.8352 355.585 20.836C355.169 20.836 354.914 20.996 354.914 21.2792C354.917 22.1824 358.848 21.58 358.848 24.5104Z" fill="#B4B7C9"/>
<path d="M367.604 18.9672V26.8872H365.207V26.1424C364.93 26.471 364.579 26.73 364.182 26.898C363.785 27.066 363.354 27.1382 362.923 27.1088C361.309 27.1088 359.937 25.9688 359.937 23.8288V18.9672H362.334V23.4808C362.314 23.6694 362.335 23.8601 362.397 24.0396C362.459 24.2191 362.56 24.3831 362.692 24.5201C362.824 24.6572 362.985 24.764 363.163 24.8332C363.341 24.9024 363.532 24.9323 363.724 24.9208C364.603 24.9208 365.21 24.4144 365.21 23.2896V18.9696L367.604 18.9672Z" fill="#B4B7C9"/>
<path d="M381.35 22.024V26.8864H378.953V22.2296C378.953 21.4376 378.569 20.9312 377.803 20.9312C377.004 20.9312 376.556 21.4856 376.556 22.42V26.8864H374.159V22.2296C374.159 21.4376 373.776 20.9312 373.008 20.9312C372.209 20.9312 371.762 21.4856 371.762 22.42V26.8864H369.365V18.9664H371.762V19.6944C372.011 19.3714 372.337 19.1153 372.71 18.9494C373.085 18.7835 373.495 18.7132 373.903 18.7448C374.313 18.7249 374.722 18.8107 375.089 18.9938C375.455 19.1769 375.768 19.4511 375.996 19.7896C376.262 19.4355 376.614 19.1538 377.019 18.9711C377.424 18.7884 377.87 18.7106 378.314 18.7448C380.148 18.7456 381.35 20.044 381.35 22.024Z" fill="#B4B7C9"/>
<path d="M383.378 18.9184C384.36 18.9184 385.157 18.1289 385.157 17.1552C385.157 16.1814 384.36 15.392 383.378 15.392C382.395 15.392 381.599 16.1814 381.599 17.1552C381.599 18.1289 382.395 18.9184 383.378 18.9184Z" fill="#B4B7C9"/>
<path d="M444.599 16.8112H447.333V27.425H444.599V16.8112ZM448.418 23.4175C448.418 20.7925 450.094 19.2262 452.683 19.2262C455.271 19.2262 456.947 20.7925 456.947 23.4175C456.947 26.0425 455.307 27.6175 452.683 27.6175C450.058 27.6175 448.418 26.0862 448.418 23.4175ZM454.204 23.4175C454.204 21.9737 453.612 21.125 452.683 21.125C451.753 21.125 451.17 22 451.17 23.4175C451.17 24.835 451.744 25.6925 452.683 25.6925C453.621 25.6925 454.204 24.8875 454.204 23.4262V23.4175ZM457.977 27.9412H460.602C460.727 28.2077 460.938 28.4283 461.204 28.5702C461.47 28.712 461.776 28.7677 462.078 28.7287C463.117 28.7287 463.664 28.1862 463.664 27.3987V25.9287H463.609C463.391 26.3793 463.038 26.7567 462.594 27.0126C462.151 27.2684 461.638 27.3907 461.121 27.3637C459.125 27.3637 457.804 25.9025 457.804 23.3912C457.804 20.88 459.062 19.2962 461.158 19.2962C461.69 19.2762 462.217 19.413 462.666 19.6881C463.116 19.9634 463.467 20.364 463.673 20.8362V19.375H466.407V27.3375C466.407 29.2537 464.648 30.4437 462.051 30.4437C459.636 30.4437 458.132 29.4025 457.977 27.95V27.9412ZM463.673 23.4087C463.673 22.1312 463.062 21.3262 462.096 21.3262C461.13 21.3262 460.538 22.1225 460.538 23.4087C460.538 24.695 461.121 25.4212 462.096 25.4212C463.071 25.4212 463.673 24.7125 463.673 23.4175V23.4087ZM467.436 23.4087C467.436 20.7837 469.113 19.2175 471.701 19.2175C474.289 19.2175 475.975 20.7837 475.975 23.4087C475.975 26.0337 474.335 27.6087 471.701 27.6087C469.068 27.6087 467.436 26.0862 467.436 23.4175V23.4087ZM473.223 23.4087C473.223 21.965 472.631 21.1162 471.701 21.1162C470.772 21.1162 470.234 22 470.234 23.4262C470.234 24.8525 470.808 25.7012 471.738 25.7012C472.667 25.7012 473.223 24.8875 473.223 23.4262V23.4087ZM477.014 17.4675C477.007 17.2024 477.082 16.9413 477.229 16.7173C477.377 16.4932 477.59 16.3162 477.843 16.2088C478.095 16.1014 478.375 16.0684 478.647 16.1139C478.919 16.1594 479.171 16.2815 479.371 16.4646C479.57 16.6478 479.709 16.8837 479.769 17.1425C479.829 17.4013 479.807 17.6714 479.707 17.9185C479.607 18.1655 479.433 18.3784 479.206 18.5303C478.98 18.6821 478.712 18.766 478.436 18.7712C478.253 18.7833 478.069 18.7589 477.896 18.6996C477.723 18.6402 477.565 18.5473 477.432 18.4265C477.298 18.3057 477.192 18.1597 477.12 17.9976C477.048 17.8357 477.012 17.6611 477.014 17.485V17.4675ZM477.014 19.3925H479.748V27.425H477.014V19.3925ZM489.672 23.4087C489.672 26.0337 488.46 27.53 486.382 27.53C485.849 27.5628 485.319 27.4378 484.862 27.1718C484.406 26.9057 484.046 26.5115 483.83 26.0425H483.776V29.9975H481.042V19.375H483.776V20.81H483.83C484.036 20.3332 484.389 19.9288 484.842 19.6517C485.296 19.3745 485.827 19.2382 486.364 19.2612C488.46 19.2962 489.708 20.8012 489.708 23.4262L489.672 23.4087ZM486.938 23.4087C486.938 22.1312 486.327 21.3175 485.37 21.3175C484.414 21.3175 483.803 22.14 483.794 23.4087C483.785 24.6775 484.414 25.4912 485.37 25.4912C486.327 25.4912 486.938 24.695 486.938 23.4262V23.4087ZM494.365 19.2087C496.634 19.2087 498.01 20.2412 498.074 21.895H495.586C495.586 21.3262 495.094 20.9675 494.338 20.9675C493.581 20.9675 493.244 21.2475 493.244 21.6587C493.244 22.07 493.545 22.2012 494.155 22.3237L495.905 22.665C497.573 23.0062 498.283 23.6537 498.283 24.87C498.283 26.5325 496.707 27.6 494.383 27.6C492.059 27.6 490.538 26.5325 490.419 24.8962H493.053C493.135 25.4912 493.627 25.8412 494.429 25.8412C495.231 25.8412 495.595 25.5875 495.595 25.1675C495.595 24.7475 495.34 24.66 494.684 24.5287L493.107 24.205C491.476 23.8812 490.62 23.05 490.62 21.825C490.638 20.25 492.105 19.2262 494.365 19.2262V19.2087ZM507.405 27.4075H504.772V25.9112H504.717C504.572 26.4136 504.253 26.8533 503.812 27.1573C503.371 27.4613 502.835 27.6114 502.293 27.5825C501.878 27.6051 501.462 27.542 501.074 27.3972C500.687 27.2523 500.336 27.0294 500.046 26.7432C499.755 26.4571 499.532 26.1143 499.392 25.7383C499.251 25.3623 499.197 24.9618 499.231 24.5637V19.375H501.965V23.96C501.965 24.9137 502.475 25.4212 503.323 25.4212C503.522 25.4216 503.718 25.3812 503.9 25.3028C504.08 25.2243 504.242 25.1095 504.374 24.9661C504.504 24.8227 504.602 24.6541 504.66 24.4716C504.717 24.289 504.735 24.0967 504.708 23.9075V19.375H507.442L507.405 27.4075ZM508.727 19.375H511.37V20.9237H511.424C511.569 20.428 511.882 19.9925 512.312 19.6853C512.742 19.3782 513.267 19.2167 513.803 19.2262C514.349 19.1843 514.89 19.341 515.321 19.6653C515.751 19.9896 516.039 20.4575 516.127 20.9762H516.181C516.346 20.452 516.689 19.9956 517.154 19.6788C517.619 19.3619 518.181 19.2027 518.751 19.2262C519.123 19.2142 519.493 19.2775 519.837 19.4119C520.183 19.5462 520.493 19.7488 520.751 20.0062C521.009 20.2637 521.208 20.5704 521.335 20.9063C521.46 21.2422 521.512 21.6 521.485 21.9562V27.425H518.751V22.6562C518.751 21.7812 518.341 21.3787 517.575 21.3787C517.405 21.3773 517.236 21.4111 517.08 21.4778C516.924 21.5445 516.784 21.6425 516.671 21.7652C516.558 21.888 516.474 22.0325 516.424 22.1892C516.373 22.346 516.36 22.5112 516.382 22.6737V27.425H513.785V22.6212C513.785 21.8162 513.374 21.3787 512.627 21.3787C512.455 21.3788 512.284 21.414 512.127 21.482C511.969 21.5501 511.828 21.6494 511.714 21.7734C511.599 21.8973 511.514 22.0433 511.462 22.2016C511.411 22.3598 511.394 22.5266 511.415 22.6912V27.425H508.681L508.727 19.375Z" fill="#B4B7C9"/>
<path d="M436.954 17.2925C436.49 16.2743 435.876 15.3255 435.131 14.475C434.03 13.1803 432.655 12.1242 431.098 11.3763C429.541 10.6284 427.837 10.2055 426.097 10.1356C424.358 10.0657 422.623 10.3503 421.006 10.9706C419.389 11.591 417.928 12.5331 416.718 13.7349C415.508 14.9367 414.576 16.3709 413.985 17.9433C413.394 19.5156 413.156 21.1903 413.287 22.8572C413.418 24.5241 413.916 26.1454 414.747 27.6144C415.578 29.0834 416.723 30.3668 418.108 31.38C418.997 32.0432 419.978 32.5823 421.024 32.9813C422.491 33.5583 424.06 33.8554 425.645 33.8563C428.915 33.8494 432.05 32.5974 434.361 30.3749C436.673 28.1524 437.972 25.1408 437.974 22C437.977 20.38 437.629 18.7771 436.954 17.2925ZM425.635 12.5413C427.058 12.5411 428.464 12.8398 429.754 13.4163C429.44 13.5468 429.109 13.638 428.77 13.6875C427.655 13.8425 426.623 14.3395 425.826 15.1043C425.029 15.8691 424.512 16.8608 424.35 17.9313C424.28 18.5316 423.995 19.0901 423.545 19.5126C423.095 19.935 422.508 20.1954 421.881 20.25C420.766 20.405 419.733 20.902 418.937 21.6668C418.14 22.4317 417.623 23.4233 417.461 24.4938C417.406 25.0646 417.153 25.6011 416.741 26.0163C416.031 24.5754 415.712 22.9854 415.814 21.3943C415.916 19.8032 416.435 18.2626 417.323 16.916C418.212 15.5695 419.441 14.4606 420.896 13.6926C422.351 12.9247 423.984 12.5226 425.645 12.5238L425.635 12.5413ZM418.099 28.125C418.208 28.0288 418.318 27.9413 418.427 27.8363C419.238 27.0816 419.758 26.0853 419.903 25.01C419.962 24.4056 420.243 23.841 420.696 23.4175C421.132 22.982 421.719 22.7143 422.346 22.665C423.461 22.5101 424.493 22.0131 425.29 21.2482C426.086 20.4834 426.604 19.4918 426.765 18.4213C426.805 17.7891 427.087 17.1935 427.558 16.75C428.005 16.3229 428.597 16.065 429.226 16.0238C430.25 15.8885 431.205 15.4513 431.96 14.7725C432.819 15.4568 433.547 16.2801 434.11 17.205C434.076 17.2499 434.036 17.291 433.992 17.3275C433.557 17.767 432.971 18.0405 432.342 18.0975C431.226 18.2498 430.192 18.7459 429.395 19.5112C428.598 20.2765 428.081 21.2697 427.923 22.3413C427.858 22.9436 427.579 23.5062 427.133 23.9335C426.686 24.361 426.099 24.6269 425.471 24.6863C424.353 24.84 423.317 25.3361 422.515 26.1005C421.714 26.8651 421.191 27.8574 421.024 28.93C420.975 29.3576 420.822 29.7683 420.578 30.1288C419.643 29.5957 418.805 28.9188 418.099 28.125ZM425.635 31.5025C424.711 31.5035 423.79 31.3798 422.902 31.135C423.206 30.5908 423.403 29.9976 423.485 29.385C423.549 28.784 423.826 28.2225 424.271 27.7953C424.716 27.3682 425.301 27.1014 425.927 27.04C427.044 26.8868 428.078 26.3906 428.877 25.6256C429.675 24.8607 430.194 23.868 430.356 22.7963C430.42 22.1952 430.698 21.6338 431.143 21.2066C431.587 20.7794 432.172 20.5126 432.798 20.4513C433.638 20.3464 434.439 20.046 435.131 19.5763C435.515 20.9744 435.561 22.4385 435.264 23.8562C434.967 25.2738 434.336 26.6075 433.42 27.7547C432.503 28.9019 431.325 29.8322 429.975 30.4743C428.626 31.1164 427.141 31.4532 425.635 31.4588V31.5025Z" fill="#B4B7C9"/>
</svg>
